<?xml version="1.0" encoding="UTF-8"?>
<svg id="a" data-name="Layer 1" xmlns="http://www.w3.org/2000/svg" viewBox="0 0 531.28 224.1">
  <defs>
    <style>
      .b {
        fill: #9e2e2e;
      }

      .c {
        fill: #151547;
      }
    </style>
  </defs>
  <g>
    <path class="c" d="m31.83,193.77h-13.47v-9c0-2.62-.14-4.25-.43-4.9-.29-.65-.92-.97-1.9-.97-1.11,0-1.81.4-2.11,1.18-.3.79-.45,2.5-.45,5.12v24.06c0,2.52.15,4.16.45,4.93.3.77.97,1.15,2.02,1.15s1.66-.38,1.97-1.15c.31-.77.46-2.58.46-5.42v-6.51h13.47v2.02c0,5.36-.38,9.16-1.14,11.41s-2.43,4.21-5.02,5.9c-2.59,1.69-5.79,2.53-9.58,2.53s-7.2-.71-9.76-2.14c-2.56-1.43-4.25-3.41-5.09-5.93-.83-2.53-1.25-6.33-1.25-11.4v-15.13c0-3.73.13-6.53.38-8.4s1.02-3.66,2.29-5.39,3.03-3.09,5.28-4.08c2.25-.99,4.83-1.49,7.76-1.49,3.97,0,7.24.77,9.82,2.3,2.58,1.53,4.28,3.45,5.09,5.73.81,2.29,1.21,5.85,1.21,10.69v4.92Z"/>
    <path class="c" d="m63.79,171.21v10.37h-8v41.43h-13.47v-41.43h-7.97v-10.37h29.43Z"/>
    <path class="c" d="m90.14,171.21l7.7,51.79h-13.76l-.72-9.31h-4.82l-.81,9.31h-13.92l6.87-51.79h19.47Zm-7.14,33.3c-.68-5.87-1.37-13.12-2.05-21.75-1.37,9.92-2.23,17.17-2.58,21.75h4.64Z"/>
    <path class="c" d="m133.02,223.01h-13.5v-41.46h-3.94v29.34c0,3.86-.5,6.63-1.49,8.32-1,1.69-2.51,2.74-4.53,3.17s-5.25.64-9.69.64h-2.11v-8.93c1.64,0,2.77-.2,3.39-.61.62-.4.93-1.79.93-4.16v-38.13h30.94v51.83Z"/>
    <path class="c" d="m169.78,210.88c0,3.86-.5,6.63-1.5,8.32-1,1.69-2.52,2.74-4.56,3.17-2.04.43-5.28.64-9.74.64h-15.58v-51.83h13.5v17.76h2.08c4.16,0,7.3.25,9.44.74s3.73,1.57,4.78,3.25,1.58,4.3,1.58,7.89v10.08Zm-13.5-1.57v-7.49c0-2.18-.22-3.5-.66-3.97-.44-.47-1.68-.74-3.73-.8v17.02c1.71,0,2.86-.22,3.47-.66.61-.44.91-1.81.91-4.11Z"/>
    <path class="b" d="m205.55,223.01h-13.5v-41.46h-4v41.46h-13.5v-51.83h31v51.83Z"/>
    <path class="b" d="m210.92,171.21h13.56c3.67,0,6.49.29,8.46.86,1.97.58,3.46,1.41,4.45,2.5.99,1.09,1.66,2.4,2.02,3.95.35,1.55.53,3.94.53,7.18v4.51c0,3.31-.34,5.72-1.02,7.23s-1.93,2.68-3.76,3.49c-1.82.81-4.21,1.22-7.15,1.22h-3.62v20.86h-13.47v-51.79Zm13.47,8.86v13.18c.38.02.71.03.99.03,1.24,0,2.1-.3,2.58-.91.48-.61.72-1.87.72-3.79v-4.25c0-1.77-.28-2.92-.83-3.46-.55-.53-1.71-.8-3.46-.8Z"/>
    <path class="b" d="m274.58,201.54c0,5.2-.12,8.89-.37,11.05s-1.01,4.14-2.3,5.93c-1.29,1.79-3.03,3.17-5.23,4.13-2.2.96-4.76,1.44-7.68,1.44s-5.26-.45-7.47-1.36-3.98-2.27-5.33-4.08c-1.34-1.81-2.14-3.79-2.4-5.92-.26-2.13-.38-5.87-.38-11.2v-8.86c0-5.2.12-8.89.37-11.05s1.01-4.14,2.3-5.93c1.29-1.79,3.03-3.17,5.23-4.13,2.2-.96,4.76-1.44,7.68-1.44s5.26.45,7.47,1.36c2.21.91,3.98,2.27,5.33,4.08,1.34,1.81,2.14,3.79,2.4,5.92.26,2.13.38,5.87.38,11.2v8.86Zm-13.47-17.02c0-2.41-.13-3.95-.4-4.62-.27-.67-.82-1.01-1.65-1.01-.7,0-1.24.27-1.62.82-.37.54-.56,2.15-.56,4.81v24.19c0,3.01.12,4.86.37,5.57.25.7.82,1.06,1.71,1.06s1.5-.41,1.76-1.22.38-2.74.38-5.79v-23.8Z"/>
    <path class="b" d="m328.07,197.64c0,3.39-.16,5.83-.48,7.33-.45,2.07-1.4,3.94-2.85,5.6-2.26,2.58-6.52,3.87-12.76,3.87h-2.37v8.57h-13.5v-8.57h-2.08c-6.27,0-10.54-1.29-12.8-3.87-1.45-1.66-2.4-3.53-2.85-5.6-.32-1.49-.48-3.93-.48-7.33v-.9c0-3.39.16-5.83.48-7.33.45-2.07,1.4-3.93,2.85-5.6,2.24-2.52,6.5-3.78,12.8-3.78.47,0,1.16-.03,2.08-.1v-8.77h13.5v8.77c1.09.06,1.88.1,2.37.1,6.29,0,10.55,1.26,12.76,3.78,1.45,1.66,2.4,3.53,2.85,5.6.32,1.49.48,3.94.48,7.33v.9Zm-31.96,8.73v-18.36h-1.12c-1,0-1.85.53-2.54,1.6s-1.04,2.48-1.04,4.25v6.69c0,1.75.35,3.16,1.04,4.22.69,1.07,1.54,1.6,2.54,1.6h1.12Zm18.49-5.82v-6.69c0-1.77-.35-3.19-1.04-4.25-.69-1.07-1.55-1.6-2.58-1.6h-1.38v18.36h1.38c1.02,0,1.88-.53,2.58-1.6.69-1.07,1.04-2.47,1.04-4.22Z"/>
    <path class="c" d="m363.26,193.77h-13.47v-9c0-2.62-.14-4.25-.43-4.9-.29-.65-.92-.97-1.9-.97-1.11,0-1.81.4-2.11,1.18-.3.79-.45,2.5-.45,5.12v24.06c0,2.52.15,4.16.45,4.93.3.77.97,1.15,2.02,1.15s1.66-.38,1.97-1.15c.31-.77.46-2.58.46-5.42v-6.51h13.47v2.02c0,5.36-.38,9.16-1.14,11.41s-2.43,4.21-5.02,5.9c-2.59,1.69-5.79,2.53-9.58,2.53s-7.2-.71-9.76-2.14-4.25-3.41-5.09-5.93-1.25-6.33-1.25-11.4v-15.13c0-3.73.13-6.53.38-8.4.26-1.87,1.02-3.66,2.29-5.39,1.27-1.73,3.03-3.09,5.28-4.08s4.84-1.49,7.76-1.49c3.97,0,7.24.77,9.82,2.3,2.58,1.53,4.28,3.45,5.09,5.73s1.22,5.85,1.22,10.69v4.92Z"/>
    <path class="c" d="m368.09,171.21h22.46v10.37h-8.99v9.82h8.41v9.85h-8.41v11.39h9.89v10.37h-23.35v-51.79Z"/>
    <path class="c" d="m395.32,171.21h13.56c3.67,0,6.49.29,8.46.86,1.97.58,3.46,1.41,4.45,2.5.99,1.09,1.66,2.4,2.02,3.95.35,1.55.53,3.94.53,7.18v4.51c0,3.31-.34,5.72-1.02,7.23s-1.93,2.68-3.76,3.49c-1.82.81-4.21,1.22-7.15,1.22h-3.62v20.86h-13.47v-51.79Zm13.47,8.86v13.18c.38.02.71.03.99.03,1.24,0,2.1-.3,2.58-.91.48-.61.72-1.87.72-3.79v-4.25c0-1.77-.28-2.92-.83-3.46-.55-.53-1.71-.8-3.46-.8Z"/>
    <path class="c" d="m428.21,171.21h13.44c4.24,0,7.46.33,9.65.99,2.19.66,3.95,2,5.29,4.01s2.02,5.26,2.02,9.73c0,3.03-.47,5.14-1.42,6.33-.95,1.19-2.82,2.11-5.61,2.75,3.11.7,5.22,1.87,6.33,3.5,1.11,1.63,1.66,4.14,1.66,7.51v4.8c0,3.5-.4,6.09-1.2,7.78-.8,1.69-2.07,2.84-3.82,3.46s-5.33.93-10.75.93h-15.58v-51.79Zm13.47,8.86v11.52c.58-.02,1.02-.03,1.34-.03,1.32,0,2.16-.32,2.53-.98.36-.65.54-2.51.54-5.58,0-1.62-.15-2.76-.45-3.41-.3-.65-.69-1.06-1.17-1.23-.48-.17-1.41-.27-2.8-.29Zm0,19.58v14.49c1.9-.06,3.11-.36,3.63-.9.52-.53.78-1.84.78-3.94v-4.83c0-2.22-.24-3.56-.7-4.03-.47-.47-1.71-.74-3.71-.8Z"/>
    <path class="c" d="m494.46,223.01h-11.26v-23.58l-7.01,23.58h-11.8v-51.83h11.26v23.39l7.55-23.39h11.26v51.83Z"/>
    <path class="c" d="m531.28,193.77h-13.47v-9c0-2.62-.14-4.25-.43-4.9-.29-.65-.92-.97-1.9-.97-1.11,0-1.81.4-2.11,1.18-.3.79-.45,2.5-.45,5.12v24.06c0,2.52.15,4.16.45,4.93.3.77.97,1.15,2.02,1.15s1.66-.38,1.97-1.15c.31-.77.46-2.58.46-5.42v-6.51h13.47v2.02c0,5.36-.38,9.16-1.14,11.41s-2.43,4.21-5.02,5.9c-2.59,1.69-5.79,2.53-9.58,2.53s-7.2-.71-9.76-2.14-4.25-3.41-5.09-5.93-1.25-6.33-1.25-11.4v-15.13c0-3.73.13-6.53.38-8.4.26-1.87,1.02-3.66,2.29-5.39,1.27-1.73,3.03-3.09,5.28-4.08s4.84-1.49,7.76-1.49c3.97,0,7.24.77,9.82,2.3,2.58,1.53,4.28,3.45,5.09,5.73s1.22,5.85,1.22,10.69v4.92Z"/>
  </g>
  <g>
    <polygon class="c" points="265.64 19.08 275.58 25.25 306.3 25.25 265.64 0 224.97 25.25 255.69 25.25 265.64 19.08"/>
    <polygon class="c" points="345.84 49.81 345.84 68.89 435.66 124.68 345.84 124.68 345.84 140.88 492.47 140.88 345.84 49.81"/>
    <polygon class="c" points="185.3 140.88 185.3 124.68 95.61 124.68 185.3 68.97 185.3 49.9 38.8 140.88 185.3 140.88"/>
    <polygon class="b" points="300.09 40.48 231.18 40.48 209.77 40.48 200.52 40.48 200.52 43.86 200.52 59.52 200.52 140.88 217.27 140.88 217.27 57.22 313.87 57.22 313.87 140.88 330.61 140.88 330.61 59.43 330.61 43.86 330.61 40.48 324.27 40.48 300.09 40.48"/>
  </g>
</svg>