<?xml version="1.0" encoding="UTF-8"?><svg id="a" xmlns="http://www.w3.org/2000/svg" viewBox="0 0 425.211 425.197"><defs><style>.b{fill:#97cf26;}.c{fill:#ff6163;}.d{fill:#0af;}.e{fill:#a169f7;}</style></defs><path class="d" d="m188.885,94.429c0,52.161-42.267,94.456-94.428,94.456S0,146.589,0,94.429,42.296,0,94.458,0s94.428,42.282,94.428,94.429"/><path class="b" d="m425.211,310.307c0,63.459-51.459,114.89-114.918,114.89s-114.845-51.431-114.845-114.89,51.415-114.903,114.845-114.903,114.918,51.444,114.918,114.903"/><path class="c" d="m384.274,94.429c0,40.848-33.118,73.982-73.982,73.982s-73.922-33.133-73.922-73.982,33.117-73.939,73.922-73.939,73.982,33.104,73.982,73.939"/><path class="e" d="m147.963,310.307c0,29.551-23.969,53.464-53.505,53.464s-53.506-23.912-53.506-53.464,23.969-53.461,53.506-53.461,53.505,23.91,53.505,53.461"/></svg>